<svg width="26" height="20" viewBox="0 0 26 20" fill="none" xmlns="http://www.w3.org/2000/svg">
<path d="M13.0963 15.6003H14.3439C15.2888 15.6003 16.1303 15.459 16.8685 15.1766C17.6067 14.8941 18.2268 14.5057 18.7288 14.0113C19.2455 13.5169 19.6368 12.9308 19.8952 12.2599C20.1757 11.5678 20.3085 10.8192 20.3085 10.0071C20.3085 9.19492 20.1683 8.46751 19.8952 7.77542C19.6146 7.08333 19.2234 6.49011 18.6993 5.99576C18.1973 5.50141 17.5772 5.11299 16.839 4.83051C16.1008 4.54802 15.2666 4.40678 14.3439 4.40678H13.0963V15.6003ZM7.66321 0H15.7096C17.1343 0 18.463 0.275424 19.7032 0.819209C20.9582 1.37006 22.0507 2.10452 22.9734 3.0226C23.9183 3.92655 24.6565 4.98588 25.1954 6.20763C25.7343 7.40819 26 8.67232 26 10C26 11.3277 25.7343 12.5706 25.1954 13.7924C24.6787 14.9929 23.9479 16.0593 23.003 16.9774C22.0802 17.8955 20.9877 18.6299 19.7327 19.1808C18.4926 19.7316 17.1564 20 15.7096 20H7.66321V0Z" fill="#0083F0"/>
<path d="M0 7.95917C0 7.54173 0.0803976 7.15212 0.248496 6.78339C0.416594 6.40073 0.643157 6.06678 0.935501 5.78849C1.22785 5.51019 1.56404 5.29452 1.9514 5.1345C2.35337 4.97448 2.77727 4.89795 3.21579 4.89795C3.65431 4.89795 4.06359 4.97448 4.45095 5.1345C4.85292 5.29452 5.20373 5.51019 5.49608 5.78849C5.78842 6.06678 6.01499 6.40073 6.18308 6.78339C6.35118 7.15212 6.43158 7.54173 6.43158 7.95917C6.43158 8.37661 6.35118 8.78014 6.18308 9.16279C6.01499 9.53153 5.78842 9.85157 5.49608 10.1299C5.20373 10.4082 4.85292 10.6238 4.45095 10.7838C4.06359 10.9439 3.65431 11.0204 3.21579 11.0204C2.77727 11.0204 2.35337 10.9439 1.9514 10.7838C1.56404 10.6238 1.22785 10.4082 0.935501 10.1299C0.643157 9.85157 0.416594 9.53153 0.248496 9.16279C0.0803976 8.78014 0 8.37661 0 7.95917Z" fill="#0083F0"/>
<path d="M0 16.8708C0 16.4441 0.0803976 16.0458 0.248496 15.6689C0.416594 15.2777 0.643157 14.9363 0.935501 14.6518C1.22785 14.3674 1.56404 14.1469 1.9514 13.9833C2.35337 13.8197 2.77727 13.7415 3.21579 13.7415C3.65431 13.7415 4.06359 13.8197 4.45095 13.9833C4.85292 14.1469 5.20373 14.3674 5.49608 14.6518C5.78842 14.9363 6.01499 15.2777 6.18308 15.6689C6.35118 16.0458 6.43158 16.4441 6.43158 16.8708C6.43158 17.2975 6.35118 17.71 6.18308 18.1011C6.01499 18.4781 5.78842 18.8052 5.49608 19.0897C5.20373 19.3742 4.85292 19.5946 4.45095 19.7582C4.06359 19.9218 3.65431 20 3.21579 20C2.77727 20 2.35337 19.9218 1.9514 19.7582C1.56404 19.5946 1.22785 19.3742 0.935501 19.0897C0.643157 18.8052 0.416594 18.4781 0.248496 18.1011C0.0803976 17.71 0 17.2975 0 16.8708Z" fill="#0083F0"/>
</svg>
